#!OML:ASF F:\VICON\USERDATA\INSTALL\rory3\rory3.ASF
:FULLY-SPECIFIED
:DEGREES
37
root -0.10538023074352118 18.470896867764786 16.63996540510543 4.894718377525379 -2.7581050514501766 1.8729943641980733
lfemur 13.834065239291546 -4.8178421668613165 -27.654624630052783
ltibia 50.88707700750728
lfoot 16.356223236396048 -11.807047866628483
ltoes -8.094691000993633
rfemur -35.95607945332374 -0.2732768956546363 25.653166852997153
rtibia 34.82115724174628
rfoot 1.1836379485891522 -4.2908152648853095
rtoes -13.3342660201792
lowerback 14.224330444494825 -1.9609708341356362 -3.497893065316017
upperback -1.3857864498862646 -2.959133415961424 1.886172610286906
thorax -9.07238835353562 -1.1915108189365422 4.854965479319027
lowerneck -20.742796062474923 -2.5296503668657637 -2.379703362354899
upperneck 15.114144096517732 -3.0965353801249527 2.0234180286339103
head 8.044824356240056 -1.404797541260071 0.5651729447245092
lclavicle -1.7288340370861813e-15 1.7836277319764024e-15
lhumerus -35.108013634533535 -23.45804740428783 97.77658230691064
lradius 115.18279469146516
lwrist 33.641393142408184
lhand -25.706178511674207 1.7925725306560927
lfingers 7.12502
lthumb 0.4751669711546591 31.64035373647242
rclavicle -1.728834036793601e-15 1.7836277321894197e-15
rhumerus -63.04286403602777 0.652964973357018 -93.04016361738736
rradius 106.0918121882972
rwrist -6.208600965300354
rhand -15.596929060747213 39.36456950461172
rfingers 7.12502
rthumb 10.667202820108848 9.5122471019694
38
root -0.06455088023564007 18.347925080557594 18.37273935637146 4.056721622568354 -3.2676616709492268 1.1895138881228942
lfemur 11.428203096408511 -3.865701298111352 -26.36929712212286
ltibia 58.25294035220202
lfoot 15.334787837655414 -11.21213615649403
ltoes -5.674505041664293
rfemur -34.670146612928 0.3929339916929478 26.304730823549168
rtibia 37.05501486639914
rfoot -0.11592508720597117 -3.3180711793889723
rtoes -9.418460359007156
lowerback 14.631717968349612 -1.7278680170132361 -2.7439466098407275
upperback -1.068444790819455 -2.559567286519191 2.023133376034734
thorax -9.097544152383673 -1.045176310405345 4.527491175585404
lowerneck -20.8714777353057 -2.6358845796060764 -2.3226359898809013
upperneck 14.695512372464146 -3.2703644137005043 1.9710647649089548
head 7.9266053633871065 -1.4926558356031876 0.5197882223074843
lclavicle -1.7288340370885207e-15 1.7836277319753714e-15
lhumerus -36.086466151671296 -22.805614743537596 97.852379360902
lradius 111.96011407840074
lwrist 34.05310477417334
lhand -25.63499039193702 1.494160913948945
lfingers 7.12502
lthumb 0.6501090674815672 31.43170026865323
rclavicle -1.7288340367899887e-15 1.7836277321926694e-15
rhumerus -61.61679154573176 0.38928332076022976 -93.05109225718239
rradius 105.4832433848807
rwrist -5.261446179135221
rhand -15.765306023454574 39.30643534600379
rfingers 7.12502
rthumb 10.522367768402475 9.406227870947037
39
root -0.047398940980772714 18.177150695206674 19.69799802925779 3.226156975130807 -3.9707027941065385 0.35234637286923975
lfemur 8.534141095133508 -2.5010149612438006 -24.631100470971056
ltibia 65.62935390935
lfoot 13.618363827649643 -10.049853784460767
ltoes -4.585152791707512
rfemur -33.697381959162946 1.2427417059678045 27.183706152946158
rtibia 40.95625380640455
rfoot -2.9055684233265016 -2.7095623060799308
rtoes -5.104763193759675
lowerback 15.085985898575425 -1.4004175791555524 -1.8847588281457759
upperback -0.7093292584132417 -1.9713707430401022 2.232102890500224
thorax -9.184193790282599 -0.8018288683500004 4.1396799961257225
lowerneck -20.994478160460414 -2.7503721188604473 -2.249511633421463
upperneck 14.29669153678633 -3.4304149470202256 1.9232532171866645
head 7.785065152795439 -1.5937453122652014 0.47613776394459845
lclavicle -1.7288340370913399e-15 1.783627731973757e-15
lhumerus -37.4276199346983 -21.81925375233323 97.9124407256866
lradius 108.63389836956254
lwrist 34.75945608919904
lhand -25.73774009955887 1.707784077907991
lfingers 7.12502
lthumb 0.6366848533459163 31.666681183480826
rclavicle -1.7288340367934354e-15 1.783627732190569e-15
rhumerus -60.0950527533756 0.414101404572655 -93.18345658068613
rradius 104.9059794779502
rwrist -4.9272065908414175
rhand -15.905908024183564 39.27672992774963
rfingers 7.12502
rthumb 10.423443476255265 9.3275538969335
40
root -0.049364162118008925 17.98255778720078 20.831518183452737 2.5536746667328742 -4.617075561095472 -0.6315069516392109
lfemur 4.871267338510252 -0.699105948166348 -22.228459364866126
ltibia 73.16654052456613
lfoot 11.444422830663468 -8.616076287005338
ltoes -4.519506672132451
rfemur -32.64602438406427 2.260067871704681 28.332124863565678
rtibia 45.36629379381006
rfoot -6.593914269232531 -3.3886437461574737
rtoes -1.675168529267704
lowerback 15.581763996829524 -1.0332936418959398 -0.9075590576434285
upperback -0.46092902789946255 -1.289182162189305 2.5734047907933375
thorax -9.321788655246007 -0.5024673394631421 3.76295964664434
lowerneck -21.10575403354237 -2.8567161626529716 -2.1380020410309
upperneck 13.962533157350641 -3.5862128294945395 1.8482214086964155
head 7.69188536048068 -1.6874241177112763 0.41057045920303237
lclavicle -1.728834037092745e-15 1.783627731972959e-15
lhumerus -39.16651150003337 -20.55010577795732 98.09440786567748
lradius 105.54947391035458
lwrist 35.28930845108227
lhand -25.845255295404545 1.9140259029665236
lfingers 7.12502
lthumb 0.5830072005957371 31.86466808023609
rclavicle -1.7288340367975931e-15 1.7836277321877745e-15
rhumerus -58.34787419700347 0.737119918115047 -93.46820395900221
rradius 104.2950335058748
rwrist -5.309581681974699
rhand -16.199502137913097 39.159551028907295
rfingers 7.12502
rthumb 10.078930538159234 9.116057571551488
